<svg width="29" height="26" viewBox="0 0 29 26" fill="none" xmlns="http://www.w3.org/2000/svg">
<path d="M22.2143 0.838379H5.866C4.31806 0.840183 2.83406 1.43938 1.7395 2.50454C0.644936 3.56969 0.0291979 5.01384 0.0273438 6.5202L0.0273438 20.1566C0.0291979 21.6629 0.644936 23.1071 1.7395 24.1722C2.83406 25.2374 4.31806 25.8366 5.866 25.8384H22.2143C23.7622 25.8366 25.2462 25.2374 26.3408 24.1722C27.4353 23.1071 28.0511 21.6629 28.0529 20.1566V6.5202C28.0511 5.01384 27.4353 3.56969 26.3408 2.50454C25.2462 1.43938 23.7622 0.840183 22.2143 0.838379ZM5.866 3.11111H22.2143C22.9135 3.11244 23.5963 3.31737 24.1748 3.69952C24.7534 4.08167 25.2011 4.62355 25.4605 5.25542L16.5181 13.9588C15.86 14.5967 14.969 14.9548 14.0401 14.9548C13.1113 14.9548 12.2203 14.5967 11.5622 13.9588L2.61971 5.25542C2.87912 4.62355 3.3269 4.08167 3.90544 3.69952C4.48397 3.31737 5.16678 3.11244 5.866 3.11111ZM22.2143 23.5657H5.866C4.9369 23.5657 4.04585 23.2065 3.38887 22.5672C2.73189 21.9278 2.36281 21.0607 2.36281 20.1566V8.22474L9.91103 15.5657C11.0071 16.6296 12.492 17.2271 14.0401 17.2271C15.5882 17.2271 17.0732 16.6296 18.1692 15.5657L25.7174 8.22474V20.1566C25.7174 21.0607 25.3484 21.9278 24.6914 22.5672C24.0344 23.2065 23.1434 23.5657 22.2143 23.5657Z" fill="#1654A4"/>
</svg>
