<svg width="30" height="29" viewBox="0 0 30 29" fill="none" xmlns="http://www.w3.org/2000/svg">
<g clip-path="url(#clip0_3_567)">
<path d="M15.1039 0.838379C12.2617 0.838379 9.48327 1.65946 7.12003 3.1978C4.75679 4.73614 2.91487 6.92265 1.82718 9.48081C0.739503 12.039 0.454916 14.8539 1.00941 17.5696C1.56391 20.2854 2.93258 22.7799 4.94235 24.7379C6.95212 26.6958 9.51273 28.0292 12.3004 28.5694C15.088 29.1096 17.9775 28.8323 20.6034 27.7727C23.2292 26.7131 25.4736 24.9187 27.0527 22.6164C28.6318 20.3141 29.4746 17.6073 29.4746 14.8384C29.4705 11.1266 27.9551 7.56796 25.261 4.94332C22.5669 2.31868 18.914 0.842394 15.1039 0.838379V0.838379ZM15.1039 26.505C12.7354 26.505 10.4201 25.8208 8.45068 24.5389C6.48131 23.2569 4.94638 21.4348 4.03998 19.303C3.13358 17.1712 2.89642 14.8254 3.3585 12.5623C3.82058 10.2992 4.96114 8.22041 6.63595 6.5888C8.31076 4.95719 10.4446 3.84605 12.7676 3.39588C15.0907 2.94572 17.4985 3.17676 19.6868 4.05978C21.875 4.94281 23.7454 6.43815 25.0612 8.35673C26.3771 10.2753 27.0795 12.5309 27.0795 14.8384C27.076 17.9315 25.8132 20.897 23.5681 23.0842C21.323 25.2714 18.279 26.5016 15.1039 26.505Z" fill="#1654A4"/>
<path d="M15.1039 7.83838C14.7863 7.83838 14.4817 7.9613 14.2571 8.18009C14.0325 8.39888 13.9063 8.69563 13.9063 9.00505V14.0509L9.86938 16.5149C9.59941 16.6792 9.40749 16.9412 9.33585 17.2434C9.26421 17.5455 9.31871 17.863 9.48736 18.126C9.65601 18.3891 9.925 18.576 10.2352 18.6458C10.5453 18.7156 10.8712 18.6625 11.1412 18.4982L15.7398 15.6982C15.9135 15.5922 16.0564 15.4444 16.1548 15.2692C16.2531 15.0939 16.3036 14.8969 16.3014 14.6972V9.00505C16.3014 8.69563 16.1753 8.39888 15.9507 8.18009C15.7261 7.9613 15.4215 7.83838 15.1039 7.83838Z" fill="#1654A4"/>
</g>
<defs>
<clipPath id="clip0_3_567">
<rect width="28.7413" height="28" fill="white" transform="translate(0.733276 0.838379)"/>
</clipPath>
</defs>
</svg>
