<svg width="20" height="20" viewBox="0 0 20 20" fill="none" xmlns="http://www.w3.org/2000/svg">
<path fill-rule="evenodd" clip-rule="evenodd" d="M17.1158 2.94083C16.2078 2.03395 15.1275 1.31487 13.9374 0.825238C12.7473 0.335607 11.4712 0.0851612 10.1829 0.0884101C4.78066 0.0884101 0.382897 4.45099 0.380713 9.81349C0.380713 11.5273 0.831625 13.2 1.68869 14.6755L0.298828 19.7141L5.49469 18.361C6.93193 19.1373 8.54211 19.5444 10.1785 19.5451H10.1829C15.584 19.5451 19.9817 15.1825 19.9839 9.81999C19.9876 8.54218 19.7361 7.27632 19.2438 6.09556C18.7515 4.9148 18.0282 3.84256 17.1158 2.94083ZM10.1829 17.9038H10.1796C8.72042 17.904 7.28811 17.5144 6.03295 16.7761L5.73598 16.6006L2.65274 17.4033L3.47487 14.4209L3.28162 14.1154C2.46581 12.8267 2.03395 11.3353 2.03588 9.81349C2.03806 5.35666 5.6923 1.73074 10.1861 1.73074C11.2564 1.72838 12.3165 1.93667 13.305 2.34353C14.2936 2.7504 15.191 3.34777 15.9454 4.10108C16.7038 4.85079 17.3049 5.74221 17.714 6.72382C18.1231 7.70544 18.332 8.75777 18.3288 9.81999C18.3266 14.2768 14.6723 17.9038 10.1829 17.9038ZM14.6516 11.8491C14.4059 11.7267 13.2028 11.1395 12.9779 11.0582C12.754 10.977 12.5914 10.9369 12.4276 11.1796C12.2638 11.4222 11.7944 11.9693 11.6513 12.1318C11.5083 12.2943 11.3653 12.3138 11.1207 12.1925C10.8762 12.0712 10.0868 11.8144 9.15112 10.9867C8.42289 10.3422 7.93158 9.54699 7.78856 9.30324C7.64553 9.05949 7.77327 8.92841 7.89664 8.80708C8.00691 8.69874 8.14121 8.52324 8.26349 8.38133C8.38577 8.23941 8.42616 8.13866 8.50805 7.97616C8.58993 7.81366 8.54954 7.67174 8.48731 7.55041C8.42616 7.42799 7.93595 6.23199 7.73178 5.74558C7.53417 5.27433 7.33218 5.33716 7.18152 5.33066C7.02547 5.32433 6.86931 5.32144 6.71314 5.32199C6.58895 5.32513 6.46676 5.3537 6.35422 5.4059C6.24168 5.45809 6.14122 5.5328 6.05915 5.62533C5.83424 5.86908 5.20209 6.45624 5.20209 7.65224C5.20209 8.84824 6.07989 10.0042 6.20217 10.1667C6.32446 10.3292 7.9294 12.7829 10.3859 13.8359C10.9711 14.0862 11.4275 14.2357 11.7823 14.3483C12.3686 14.5336 12.9025 14.5065 13.3251 14.4447C13.7956 14.3754 14.7739 13.8576 14.978 13.2899C15.1822 12.7222 15.1822 12.2358 15.1211 12.134C15.0599 12.0322 14.8951 11.9704 14.6516 11.8491Z" fill="white"/>
</svg>
