<svg width="26" height="31" viewBox="0 0 26 31" fill="none" xmlns="http://www.w3.org/2000/svg">
<path d="M12.6713 7.90381C11.6917 7.90381 10.7342 8.20662 9.91972 8.77394C9.10527 9.34126 8.47048 10.1476 8.09563 11.091C7.72077 12.0345 7.6227 13.0726 7.81379 14.0741C8.00489 15.0756 8.47658 15.9956 9.16922 16.7177C9.86186 17.4397 10.7443 17.9315 11.705 18.1307C12.6658 18.3299 13.6616 18.2277 14.5665 17.8369C15.4715 17.4461 16.245 16.7843 16.7892 15.9353C17.3334 15.0862 17.6239 14.088 17.6239 13.0669C17.6239 11.6975 17.1021 10.3843 16.1733 9.41603C15.2445 8.44777 13.9848 7.90381 12.6713 7.90381ZM12.6713 15.6484C12.1815 15.6484 11.7027 15.497 11.2955 15.2133C10.8883 14.9296 10.5709 14.5265 10.3834 14.0548C10.196 13.583 10.147 13.064 10.2425 12.5632C10.3381 12.0625 10.5739 11.6025 10.9202 11.2414C11.2666 10.8804 11.7078 10.6345 12.1882 10.5349C12.6685 10.4353 13.1664 10.4864 13.6189 10.6818C14.0714 10.8772 14.4581 11.2081 14.7302 11.6326C15.0023 12.0572 15.1476 12.5563 15.1476 13.0669C15.1476 13.7515 14.8867 14.4081 14.4223 14.8923C13.9579 15.3764 13.328 15.6484 12.6713 15.6484Z" fill="#1654A4"/>
<path d="M12.6715 30.1861C11.6115 30.1914 10.5657 29.9499 9.62161 29.4819C8.6775 29.0139 7.86255 28.333 7.24502 27.4961C2.44793 21.0683 0.0147705 16.2361 0.0147705 13.1328C0.0147705 9.87214 1.34824 6.745 3.72183 4.43934C6.09543 2.13368 9.31471 0.838379 12.6715 0.838379C16.0282 0.838379 19.2475 2.13368 21.6211 4.43934C23.9947 6.745 25.3282 9.87214 25.3282 13.1328C25.3282 16.2361 22.895 21.0683 18.0979 27.4961C17.4804 28.333 16.6655 29.0139 15.7213 29.4819C14.7772 29.9499 13.7314 30.1914 12.6715 30.1861ZM12.6715 3.50758C10.0437 3.51049 7.52448 4.52577 5.66639 6.33068C3.80829 8.1356 2.7631 10.5828 2.7601 13.1353C2.7601 15.5929 5.14291 20.1378 9.46796 25.9323C9.83513 26.4235 10.3168 26.8234 10.8736 27.0991C11.4304 27.3748 12.0465 27.5185 12.6715 27.5185C13.2964 27.5185 13.9125 27.3748 14.4693 27.0991C15.0261 26.8234 15.5078 26.4235 15.875 25.9323C20.2 20.1378 22.5829 15.5929 22.5829 13.1353C22.5799 10.5828 21.5347 8.1356 19.6766 6.33068C17.8185 4.52577 15.2992 3.51049 12.6715 3.50758Z" fill="#1654A4"/>
</svg>
