<svg width="26" height="26" viewBox="0 0 26 26" fill="none" xmlns="http://www.w3.org/2000/svg">
<path d="M13.7073 1.88343C13.7073 1.6067 13.8186 1.34132 14.0167 1.14564C14.2148 0.949972 14.4835 0.840045 14.7637 0.840045C17.5647 0.843083 20.25 1.94333 22.2305 3.89939C24.2111 5.85545 25.3251 8.50757 25.3282 11.2739C25.3282 11.5506 25.2169 11.816 25.0188 12.0116C24.8206 12.2073 24.5519 12.3172 24.2717 12.3172C23.9916 12.3172 23.7228 12.2073 23.5247 12.0116C23.3266 11.816 23.2153 11.5506 23.2153 11.2739C23.2128 9.06084 22.3215 6.93918 20.7371 5.37434C19.1527 3.80951 17.0045 2.92929 14.7637 2.92681C14.4835 2.92681 14.2148 2.81688 14.0167 2.62121C13.8186 2.42554 13.7073 2.16015 13.7073 1.88343ZM14.7637 7.10033C15.8845 7.10033 16.9593 7.54004 17.7518 8.32272C18.5443 9.10541 18.9895 10.167 18.9895 11.2739C18.9895 11.5506 19.1008 11.816 19.2989 12.0116C19.4971 12.2073 19.7658 12.3172 20.046 12.3172C20.3261 12.3172 20.5949 12.2073 20.793 12.0116C20.9911 11.816 21.1024 11.5506 21.1024 11.2739C21.1007 9.61403 20.4324 8.02266 19.244 6.84899C18.0556 5.67532 16.4443 5.01522 14.7637 5.01357C14.4835 5.01357 14.2148 5.12349 14.0167 5.31917C13.8186 5.51484 13.7073 5.78023 13.7073 6.05695C13.7073 6.33367 13.8186 6.59906 14.0167 6.79473C14.2148 6.9904 14.4835 7.10033 14.7637 7.10033ZM24.37 18.3052C24.9822 18.9115 25.326 19.7329 25.326 20.5891C25.326 21.4454 24.9822 22.2668 24.37 22.8731L23.4086 23.9676C14.7563 32.1488 -6.29863 11.3594 1.85713 2.78699L3.07204 1.74361C3.68665 1.15585 4.51085 0.830706 5.36633 0.838516C6.22181 0.846327 7.03978 1.18647 7.64328 1.78535C7.67603 1.81769 9.63363 4.32911 9.63363 4.32911C10.2145 4.9318 10.5378 5.73238 10.5365 6.56445C10.5351 7.39652 10.2091 8.19606 9.62623 8.79686L8.40287 10.316C9.07989 11.9407 10.0753 13.4172 11.3319 14.6608C12.5885 15.9043 14.0815 16.8904 15.7251 17.5623L17.2728 16.3468C17.8812 15.7716 18.6906 15.45 19.5328 15.4488C20.3751 15.4476 21.1854 15.767 21.7954 16.3405C21.7954 16.3405 24.3372 18.2728 24.37 18.3052ZM22.9163 19.8223C22.9163 19.8223 20.3882 17.9014 20.3555 17.8691C20.1379 17.6559 19.8438 17.5363 19.5373 17.5363C19.2308 17.5363 18.9367 17.6559 18.7191 17.8691C18.6905 17.8983 16.5597 19.575 16.5597 19.575C16.4161 19.6879 16.2452 19.7619 16.0638 19.7897C15.8825 19.8175 15.6969 19.7981 15.5254 19.7336C13.3961 18.9506 11.4621 17.7248 9.85425 16.1392C8.24644 14.5536 7.00245 12.6453 6.20652 10.5435C6.13595 10.3718 6.11294 10.1847 6.13986 10.0013C6.16678 9.81791 6.24266 9.64492 6.3597 9.5001C6.3597 9.5001 8.05741 7.39456 8.08594 7.36743C8.30173 7.15248 8.42281 6.86204 8.42281 6.55934C8.42281 6.25663 8.30173 5.96619 8.08594 5.75124C8.05319 5.71994 6.10827 3.22104 6.10827 3.22104C5.88737 3.02541 5.59907 2.92065 5.30246 2.92821C5.00586 2.93578 4.72342 3.0551 4.51304 3.26173L3.29812 4.30511C-2.66234 11.3834 15.5835 28.4041 21.8641 22.5424L22.8265 21.4468C23.0521 21.2405 23.1875 20.9556 23.2043 20.6525C23.221 20.3493 23.1178 20.0516 22.9163 19.8223Z" fill="#1654A4"/>
</svg>
