<svg width="23" height="20" viewBox="0 0 23 20" fill="none" xmlns="http://www.w3.org/2000/svg">
<path fill-rule="evenodd" clip-rule="evenodd" d="M5.48288 12.0264C5.53066 12.0425 5.5789 12.0537 5.62709 12.0607C5.67965 12.1833 5.74755 12.3418 5.82677 12.5272C6.0201 12.9796 6.28059 13.5915 6.54947 14.2298C7.09782 15.5317 7.65095 16.8736 7.77311 17.2577C7.92433 17.7326 8.08418 18.0554 8.25868 18.2759C8.34891 18.3898 8.45327 18.4893 8.57538 18.5647C8.63685 18.6026 8.70178 18.6337 8.76956 18.6569C8.77255 18.658 8.77553 18.6589 8.77851 18.6599C9.12791 18.7908 9.44645 18.7363 9.64589 18.6697C9.7526 18.6339 9.83894 18.5909 9.90013 18.556C9.93134 18.5381 9.9577 18.5216 9.97872 18.5075L9.98368 18.5042L13.0693 16.5949L16.6336 19.3062C16.6861 19.3462 16.7435 19.3798 16.8042 19.4061C17.2324 19.5915 17.6471 19.6561 18.0371 19.6033C18.4265 19.5505 18.7356 19.3882 18.9658 19.2055C19.1911 19.0266 19.344 18.8262 19.4391 18.6773C19.4876 18.6013 19.5241 18.534 19.5499 18.4826C19.5628 18.4567 19.5731 18.4344 19.5812 18.4165L19.5915 18.3929L19.5954 18.3835L19.597 18.3796L19.5977 18.3778L19.5985 18.3761C19.6171 18.3296 19.6315 18.2815 19.6414 18.2324L22.8951 1.95484C22.9055 1.90279 22.9108 1.84984 22.9108 1.79676C22.9108 1.32009 22.7297 0.866819 22.3041 0.591772C21.9404 0.356688 21.5351 0.34657 21.2791 0.365853C21.0027 0.386664 20.7476 0.45434 20.5764 0.508409C20.4873 0.536554 20.4125 0.563702 20.3587 0.584416C20.3316 0.594827 20.3094 0.603764 20.2928 0.610578L20.2805 0.615757L2.03248 7.71867L2.03012 7.71954C2.0185 7.72377 2.00356 7.72929 1.98582 7.73612C1.95049 7.74977 1.90314 7.76894 1.84784 7.79386C1.73999 7.84239 1.58869 7.91812 1.43342 8.02363C1.18538 8.1922 0.614925 8.65381 0.710981 9.41572C0.787614 10.0236 1.20728 10.3969 1.46297 10.5764C1.60336 10.675 1.73675 10.7454 1.83388 10.7913C1.87894 10.8126 1.97251 10.8503 2.0131 10.8667L2.02335 10.8708L5.48288 12.0264ZM20.9191 2.11206L20.9166 2.11316C20.9074 2.11708 20.8984 2.12083 20.8891 2.12443L2.61894 9.23599C2.6094 9.23967 2.59979 9.24325 2.59012 9.24661L2.57995 9.2504C2.56826 9.25495 2.54858 9.26286 2.52389 9.27391C2.50988 9.28019 2.49526 9.28712 2.48036 9.29449C2.50083 9.30597 2.52043 9.31583 2.53784 9.32407C2.55456 9.33197 2.56731 9.33739 2.57429 9.34021L6.0054 10.4864C6.0682 10.5074 6.12674 10.5351 6.18048 10.5687L17.5099 3.98798L17.5204 3.98176C17.5286 3.97692 17.5395 3.9707 17.5525 3.96341C17.5783 3.94895 17.6137 3.92969 17.6558 3.90841C17.7344 3.8687 17.8603 3.80976 18.002 3.7663C18.1006 3.73604 18.3916 3.65079 18.7061 3.7509C18.9003 3.81268 19.1013 3.94551 19.232 4.17052C19.2969 4.28231 19.3315 4.39461 19.3483 4.4974C19.3929 4.65934 19.3858 4.81925 19.3509 4.9573C19.2758 5.25469 19.0653 5.48665 18.8737 5.66408C18.7095 5.81619 16.5855 7.84835 14.4903 9.85447C13.4453 10.8548 12.4112 11.8454 11.6381 12.5858L11.1304 13.0722L17.5413 17.9491C17.6884 18.0013 17.7753 17.9987 17.8154 17.9932C17.8634 17.9867 17.9026 17.9684 17.9426 17.9367C17.9874 17.9011 18.0266 17.853 18.0559 17.8072L18.0571 17.8054L21.2129 2.01798C21.1661 2.02915 21.1187 2.04245 21.073 2.05686C21.0214 2.07319 20.9787 2.08874 20.9505 2.09961C20.9365 2.10499 20.9264 2.10908 20.921 2.11133L20.9191 2.11206ZM11.6811 15.5388L10.402 14.5658L10.0922 16.5219L11.6811 15.5388ZM9.22874 12.6351L10.5006 11.4166C11.2737 10.6762 12.3081 9.68557 13.3532 8.68501L14.4149 7.66862L7.29634 11.8035L7.33453 11.8929C7.52854 12.3469 7.7902 12.9615 8.06051 13.6032C8.26264 14.083 8.474 14.5883 8.6665 15.0561L8.97552 13.1057C9.00531 12.9176 9.09789 12.7549 9.22874 12.6351Z" fill="white"/>
</svg>
