<svg width="23" height="15" viewBox="0 0 23 15" fill="none" xmlns="http://www.w3.org/2000/svg">
<mask id="path-1-outside-1_3_551" maskUnits="userSpaceOnUse" x="0.034668" y="-0.807617" width="23" height="15" fill="black">
<rect fill="white" x="0.034668" y="-0.807617" width="23" height="15"/>
<path fill-rule="evenodd" clip-rule="evenodd" d="M22.4259 11.2978C21.9234 10.2936 21.2613 9.37628 20.4651 8.58108C20.1941 8.26849 19.8764 7.96003 19.6284 7.71932L19.5937 7.68568C19.4658 7.56138 19.3601 7.45825 19.2736 7.36943C20.3624 5.86719 21.2942 4.25867 22.0545 2.56859L22.0852 2.50039L22.1067 2.42883C22.2066 2.09618 22.3217 1.46362 21.9146 0.891956C21.4938 0.301091 20.8199 0.194529 20.3687 0.194529H18.2928C17.8601 0.174848 17.4315 0.290935 17.0684 0.526949C16.7026 0.764741 16.4228 1.1116 16.2688 1.51706C15.8217 2.57369 15.2624 3.57873 14.6008 4.51536V2.10152C14.6008 1.78949 14.5712 1.26753 14.2345 0.826983C13.8314 0.299496 13.2483 0.194529 12.8436 0.194529H9.54967C9.12529 0.184794 8.71255 0.335356 8.39536 0.616425C8.07054 0.904258 7.87148 1.30633 7.84039 1.73736L7.83745 1.77819V1.81913C7.83745 2.26415 8.01517 2.59242 8.15715 2.79887C8.22072 2.8913 8.28871 2.97544 8.33166 3.02858L8.34158 3.04084C8.38737 3.09751 8.41794 3.13533 8.44862 3.17674C8.52932 3.28566 8.64539 3.45359 8.67823 3.88815V5.23836C8.11036 4.31209 7.51131 3.07949 7.06058 1.76304L7.05366 1.74283L7.04599 1.7229C6.93361 1.43083 6.75335 1.00586 6.39233 0.680655C5.97057 0.300743 5.47172 0.194529 5.01805 0.194529H2.91177C2.4528 0.194529 1.89949 0.301073 1.48664 0.733208C1.08065 1.15817 1.03467 1.66736 1.03467 1.9381V2.06014L1.06057 2.17943C1.64397 4.86629 2.84607 7.38244 4.57243 9.53111C5.35512 10.7558 6.41567 11.7824 7.66972 12.5284C8.94378 13.2865 10.3811 13.7333 11.8633 13.8321L11.9019 13.8347H11.9407C12.6112 13.8347 13.3103 13.7773 13.836 13.4297C14.5451 12.9608 14.6008 12.2407 14.6008 11.8818V10.8387C14.7828 10.9847 15.0086 11.1812 15.285 11.4453C15.6191 11.7771 15.8852 12.0647 16.1134 12.3157L16.2352 12.45L16.2359 12.4508C16.4131 12.6466 16.5875 12.8394 16.7463 12.9978C16.9459 13.1969 17.1921 13.4163 17.5014 13.5784C17.8364 13.7539 18.188 13.8333 18.5615 13.8333H20.6692C21.1132 13.8333 21.7501 13.7291 22.1979 13.214C22.6859 12.6526 22.6486 11.9646 22.4952 11.4701L22.4676 11.3812L22.4259 11.2978ZM17.1423 11.3946C16.905 11.1336 16.6189 10.8243 16.2573 10.4656L16.2544 10.4626C15.0016 9.26408 14.4161 9.05527 14.0023 9.05527C13.7821 9.05527 13.5385 9.07983 13.3804 9.27518C13.3058 9.36739 13.2666 9.47867 13.2446 9.59463C13.2226 9.71041 13.2151 9.84635 13.2151 10.0012V11.8818C13.2151 12.1154 13.1764 12.2135 13.0675 12.2855C12.9225 12.3814 12.6125 12.4591 11.9485 12.4597C10.688 12.3744 9.4659 11.9939 8.38233 11.3492C7.29653 10.7033 6.38094 9.81051 5.71097 8.74461L5.70368 8.73306L5.69505 8.72233C4.08641 6.73564 2.9655 4.40512 2.42069 1.91489C2.42364 1.79485 2.44985 1.72363 2.49232 1.67917C2.53608 1.63337 2.64212 1.56953 2.91177 1.56953H5.01805C5.25235 1.56953 5.37361 1.6201 5.46089 1.69871C5.55983 1.78784 5.64564 1.93919 5.7499 2.20944C6.26688 3.71825 6.966 5.12927 7.62803 6.16676C7.95893 6.68532 8.28458 7.11697 8.57799 7.42195C8.72446 7.5743 8.8681 7.70043 9.00518 7.79017C9.13786 7.87698 9.28828 7.94546 9.44296 7.94546C9.52459 7.94546 9.62006 7.93712 9.71199 7.89669C9.81088 7.85333 9.88763 7.78092 9.94183 7.68384C10.0377 7.51224 10.064 7.25805 10.064 6.92502V3.84162L10.0635 3.83439C10.0156 3.08425 9.78738 2.66228 9.56512 2.3623C9.51641 2.29656 9.46838 2.23717 9.42634 2.18521L9.41483 2.17097C9.36868 2.11386 9.33196 2.06772 9.30178 2.02384C9.24649 1.94344 9.22506 1.88738 9.2233 1.82731C9.23052 1.75602 9.26439 1.68986 9.3184 1.64199C9.37447 1.59231 9.44784 1.56644 9.52295 1.56953H12.8436C13.034 1.56953 13.0981 1.61562 13.1304 1.65784C13.1759 1.71744 13.2151 1.8414 13.2151 2.10152V6.25274C13.2151 6.74582 13.4442 7.07967 13.7768 7.07967C14.1597 7.07967 14.4356 6.84922 14.9182 6.37035L14.9263 6.36237L14.9335 6.35358C16.0151 5.04485 16.8991 3.58678 17.5571 2.02519L17.5612 2.01349C17.6107 1.8755 17.7043 1.75737 17.8278 1.67711C17.9513 1.59685 18.0978 1.55888 18.245 1.56899L18.2531 1.56953H20.3687C20.6572 1.56953 20.7522 1.64239 20.7829 1.68549C20.8155 1.73133 20.8382 1.82959 20.7828 2.02228C20.0242 3.70566 19.0862 5.30353 17.9851 6.78908L17.9781 6.79953C17.8713 6.96178 17.754 7.14127 17.737 7.34733C17.7188 7.56862 17.8154 7.76982 17.9841 7.98542C18.1072 8.16592 18.361 8.41241 18.6184 8.66247L18.6427 8.68603C18.9127 8.9482 19.2051 9.23218 19.4398 9.50718L19.4461 9.51443L19.4529 9.52121C20.1527 10.2138 20.7347 11.0146 21.176 11.892C21.2465 12.1309 21.2033 12.253 21.1485 12.3159C21.0845 12.3896 20.9409 12.4583 20.6692 12.4583H18.5615C18.3969 12.4583 18.2699 12.4261 18.1485 12.3625C18.022 12.2962 17.8919 12.1908 17.7288 12.0281C17.5974 11.897 17.4539 11.7384 17.2787 11.5451C17.2353 11.4972 17.1899 11.4469 17.1423 11.3946Z"/>
</mask>
<path fill-rule="evenodd" clip-rule="evenodd" d="M22.4259 11.2978C21.9234 10.2936 21.2613 9.37628 20.4651 8.58108C20.1941 8.26849 19.8764 7.96003 19.6284 7.71932L19.5937 7.68568C19.4658 7.56138 19.3601 7.45825 19.2736 7.36943C20.3624 5.86719 21.2942 4.25867 22.0545 2.56859L22.0852 2.50039L22.1067 2.42883C22.2066 2.09618 22.3217 1.46362 21.9146 0.891956C21.4938 0.301091 20.8199 0.194529 20.3687 0.194529H18.2928C17.8601 0.174848 17.4315 0.290935 17.0684 0.526949C16.7026 0.764741 16.4228 1.1116 16.2688 1.51706C15.8217 2.57369 15.2624 3.57873 14.6008 4.51536V2.10152C14.6008 1.78949 14.5712 1.26753 14.2345 0.826983C13.8314 0.299496 13.2483 0.194529 12.8436 0.194529H9.54967C9.12529 0.184794 8.71255 0.335356 8.39536 0.616425C8.07054 0.904258 7.87148 1.30633 7.84039 1.73736L7.83745 1.77819V1.81913C7.83745 2.26415 8.01517 2.59242 8.15715 2.79887C8.22072 2.8913 8.28871 2.97544 8.33166 3.02858L8.34158 3.04084C8.38737 3.09751 8.41794 3.13533 8.44862 3.17674C8.52932 3.28566 8.64539 3.45359 8.67823 3.88815V5.23836C8.11036 4.31209 7.51131 3.07949 7.06058 1.76304L7.05366 1.74283L7.04599 1.7229C6.93361 1.43083 6.75335 1.00586 6.39233 0.680655C5.97057 0.300743 5.47172 0.194529 5.01805 0.194529H2.91177C2.4528 0.194529 1.89949 0.301073 1.48664 0.733208C1.08065 1.15817 1.03467 1.66736 1.03467 1.9381V2.06014L1.06057 2.17943C1.64397 4.86629 2.84607 7.38244 4.57243 9.53111C5.35512 10.7558 6.41567 11.7824 7.66972 12.5284C8.94378 13.2865 10.3811 13.7333 11.8633 13.8321L11.9019 13.8347H11.9407C12.6112 13.8347 13.3103 13.7773 13.836 13.4297C14.5451 12.9608 14.6008 12.2407 14.6008 11.8818V10.8387C14.7828 10.9847 15.0086 11.1812 15.285 11.4453C15.6191 11.7771 15.8852 12.0647 16.1134 12.3157L16.2352 12.45L16.2359 12.4508C16.4131 12.6466 16.5875 12.8394 16.7463 12.9978C16.9459 13.1969 17.1921 13.4163 17.5014 13.5784C17.8364 13.7539 18.188 13.8333 18.5615 13.8333H20.6692C21.1132 13.8333 21.7501 13.7291 22.1979 13.214C22.6859 12.6526 22.6486 11.9646 22.4952 11.4701L22.4676 11.3812L22.4259 11.2978ZM17.1423 11.3946C16.905 11.1336 16.6189 10.8243 16.2573 10.4656L16.2544 10.4626C15.0016 9.26408 14.4161 9.05527 14.0023 9.05527C13.7821 9.05527 13.5385 9.07983 13.3804 9.27518C13.3058 9.36739 13.2666 9.47867 13.2446 9.59463C13.2226 9.71041 13.2151 9.84635 13.2151 10.0012V11.8818C13.2151 12.1154 13.1764 12.2135 13.0675 12.2855C12.9225 12.3814 12.6125 12.4591 11.9485 12.4597C10.688 12.3744 9.4659 11.9939 8.38233 11.3492C7.29653 10.7033 6.38094 9.81051 5.71097 8.74461L5.70368 8.73306L5.69505 8.72233C4.08641 6.73564 2.9655 4.40512 2.42069 1.91489C2.42364 1.79485 2.44985 1.72363 2.49232 1.67917C2.53608 1.63337 2.64212 1.56953 2.91177 1.56953H5.01805C5.25235 1.56953 5.37361 1.6201 5.46089 1.69871C5.55983 1.78784 5.64564 1.93919 5.7499 2.20944C6.26688 3.71825 6.966 5.12927 7.62803 6.16676C7.95893 6.68532 8.28458 7.11697 8.57799 7.42195C8.72446 7.5743 8.8681 7.70043 9.00518 7.79017C9.13786 7.87698 9.28828 7.94546 9.44296 7.94546C9.52459 7.94546 9.62006 7.93712 9.71199 7.89669C9.81088 7.85333 9.88763 7.78092 9.94183 7.68384C10.0377 7.51224 10.064 7.25805 10.064 6.92502V3.84162L10.0635 3.83439C10.0156 3.08425 9.78738 2.66228 9.56512 2.3623C9.51641 2.29656 9.46838 2.23717 9.42634 2.18521L9.41483 2.17097C9.36868 2.11386 9.33196 2.06772 9.30178 2.02384C9.24649 1.94344 9.22506 1.88738 9.2233 1.82731C9.23052 1.75602 9.26439 1.68986 9.3184 1.64199C9.37447 1.59231 9.44784 1.56644 9.52295 1.56953H12.8436C13.034 1.56953 13.0981 1.61562 13.1304 1.65784C13.1759 1.71744 13.2151 1.8414 13.2151 2.10152V6.25274C13.2151 6.74582 13.4442 7.07967 13.7768 7.07967C14.1597 7.07967 14.4356 6.84922 14.9182 6.37035L14.9263 6.36237L14.9335 6.35358C16.0151 5.04485 16.8991 3.58678 17.5571 2.02519L17.5612 2.01349C17.6107 1.8755 17.7043 1.75737 17.8278 1.67711C17.9513 1.59685 18.0978 1.55888 18.245 1.56899L18.2531 1.56953H20.3687C20.6572 1.56953 20.7522 1.64239 20.7829 1.68549C20.8155 1.73133 20.8382 1.82959 20.7828 2.02228C20.0242 3.70566 19.0862 5.30353 17.9851 6.78908L17.9781 6.79953C17.8713 6.96178 17.754 7.14127 17.737 7.34733C17.7188 7.56862 17.8154 7.76982 17.9841 7.98542C18.1072 8.16592 18.361 8.41241 18.6184 8.66247L18.6427 8.68603C18.9127 8.9482 19.2051 9.23218 19.4398 9.50718L19.4461 9.51443L19.4529 9.52121C20.1527 10.2138 20.7347 11.0146 21.176 11.892C21.2465 12.1309 21.2033 12.253 21.1485 12.3159C21.0845 12.3896 20.9409 12.4583 20.6692 12.4583H18.5615C18.3969 12.4583 18.2699 12.4261 18.1485 12.3625C18.022 12.2962 17.8919 12.1908 17.7288 12.0281C17.5974 11.897 17.4539 11.7384 17.2787 11.5451C17.2353 11.4972 17.1899 11.4469 17.1423 11.3946Z" fill="white"/>
<path fill-rule="evenodd" clip-rule="evenodd" d="M22.4259 11.2978C21.9234 10.2936 21.2613 9.37628 20.4651 8.58108C20.1941 8.26849 19.8764 7.96003 19.6284 7.71932L19.5937 7.68568C19.4658 7.56138 19.3601 7.45825 19.2736 7.36943C20.3624 5.86719 21.2942 4.25867 22.0545 2.56859L22.0852 2.50039L22.1067 2.42883C22.2066 2.09618 22.3217 1.46362 21.9146 0.891956C21.4938 0.301091 20.8199 0.194529 20.3687 0.194529H18.2928C17.8601 0.174848 17.4315 0.290935 17.0684 0.526949C16.7026 0.764741 16.4228 1.1116 16.2688 1.51706C15.8217 2.57369 15.2624 3.57873 14.6008 4.51536V2.10152C14.6008 1.78949 14.5712 1.26753 14.2345 0.826983C13.8314 0.299496 13.2483 0.194529 12.8436 0.194529H9.54967C9.12529 0.184794 8.71255 0.335356 8.39536 0.616425C8.07054 0.904258 7.87148 1.30633 7.84039 1.73736L7.83745 1.77819V1.81913C7.83745 2.26415 8.01517 2.59242 8.15715 2.79887C8.22072 2.8913 8.28871 2.97544 8.33166 3.02858L8.34158 3.04084C8.38737 3.09751 8.41794 3.13533 8.44862 3.17674C8.52932 3.28566 8.64539 3.45359 8.67823 3.88815V5.23836C8.11036 4.31209 7.51131 3.07949 7.06058 1.76304L7.05366 1.74283L7.04599 1.7229C6.93361 1.43083 6.75335 1.00586 6.39233 0.680655C5.97057 0.300743 5.47172 0.194529 5.01805 0.194529H2.91177C2.4528 0.194529 1.89949 0.301073 1.48664 0.733208C1.08065 1.15817 1.03467 1.66736 1.03467 1.9381V2.06014L1.06057 2.17943C1.64397 4.86629 2.84607 7.38244 4.57243 9.53111C5.35512 10.7558 6.41567 11.7824 7.66972 12.5284C8.94378 13.2865 10.3811 13.7333 11.8633 13.8321L11.9019 13.8347H11.9407C12.6112 13.8347 13.3103 13.7773 13.836 13.4297C14.5451 12.9608 14.6008 12.2407 14.6008 11.8818V10.8387C14.7828 10.9847 15.0086 11.1812 15.285 11.4453C15.6191 11.7771 15.8852 12.0647 16.1134 12.3157L16.2352 12.45L16.2359 12.4508C16.4131 12.6466 16.5875 12.8394 16.7463 12.9978C16.9459 13.1969 17.1921 13.4163 17.5014 13.5784C17.8364 13.7539 18.188 13.8333 18.5615 13.8333H20.6692C21.1132 13.8333 21.7501 13.7291 22.1979 13.214C22.6859 12.6526 22.6486 11.9646 22.4952 11.4701L22.4676 11.3812L22.4259 11.2978ZM17.1423 11.3946C16.905 11.1336 16.6189 10.8243 16.2573 10.4656L16.2544 10.4626C15.0016 9.26408 14.4161 9.05527 14.0023 9.05527C13.7821 9.05527 13.5385 9.07983 13.3804 9.27518C13.3058 9.36739 13.2666 9.47867 13.2446 9.59463C13.2226 9.71041 13.2151 9.84635 13.2151 10.0012V11.8818C13.2151 12.1154 13.1764 12.2135 13.0675 12.2855C12.9225 12.3814 12.6125 12.4591 11.9485 12.4597C10.688 12.3744 9.4659 11.9939 8.38233 11.3492C7.29653 10.7033 6.38094 9.81051 5.71097 8.74461L5.70368 8.73306L5.69505 8.72233C4.08641 6.73564 2.9655 4.40512 2.42069 1.91489C2.42364 1.79485 2.44985 1.72363 2.49232 1.67917C2.53608 1.63337 2.64212 1.56953 2.91177 1.56953H5.01805C5.25235 1.56953 5.37361 1.6201 5.46089 1.69871C5.55983 1.78784 5.64564 1.93919 5.7499 2.20944C6.26688 3.71825 6.966 5.12927 7.62803 6.16676C7.95893 6.68532 8.28458 7.11697 8.57799 7.42195C8.72446 7.5743 8.8681 7.70043 9.00518 7.79017C9.13786 7.87698 9.28828 7.94546 9.44296 7.94546C9.52459 7.94546 9.62006 7.93712 9.71199 7.89669C9.81088 7.85333 9.88763 7.78092 9.94183 7.68384C10.0377 7.51224 10.064 7.25805 10.064 6.92502V3.84162L10.0635 3.83439C10.0156 3.08425 9.78738 2.66228 9.56512 2.3623C9.51641 2.29656 9.46838 2.23717 9.42634 2.18521L9.41483 2.17097C9.36868 2.11386 9.33196 2.06772 9.30178 2.02384C9.24649 1.94344 9.22506 1.88738 9.2233 1.82731C9.23052 1.75602 9.26439 1.68986 9.3184 1.64199C9.37447 1.59231 9.44784 1.56644 9.52295 1.56953H12.8436C13.034 1.56953 13.0981 1.61562 13.1304 1.65784C13.1759 1.71744 13.2151 1.8414 13.2151 2.10152V6.25274C13.2151 6.74582 13.4442 7.07967 13.7768 7.07967C14.1597 7.07967 14.4356 6.84922 14.9182 6.37035L14.9263 6.36237L14.9335 6.35358C16.0151 5.04485 16.8991 3.58678 17.5571 2.02519L17.5612 2.01349C17.6107 1.8755 17.7043 1.75737 17.8278 1.67711C17.9513 1.59685 18.0978 1.55888 18.245 1.56899L18.2531 1.56953H20.3687C20.6572 1.56953 20.7522 1.64239 20.7829 1.68549C20.8155 1.73133 20.8382 1.82959 20.7828 2.02228C20.0242 3.70566 19.0862 5.30353 17.9851 6.78908L17.9781 6.79953C17.8713 6.96178 17.754 7.14127 17.737 7.34733C17.7188 7.56862 17.8154 7.76982 17.9841 7.98542C18.1072 8.16592 18.361 8.41241 18.6184 8.66247L18.6427 8.68603C18.9127 8.9482 19.2051 9.23218 19.4398 9.50718L19.4461 9.51443L19.4529 9.52121C20.1527 10.2138 20.7347 11.0146 21.176 11.892C21.2465 12.1309 21.2033 12.253 21.1485 12.3159C21.0845 12.3896 20.9409 12.4583 20.6692 12.4583H18.5615C18.3969 12.4583 18.2699 12.4261 18.1485 12.3625C18.022 12.2962 17.8919 12.1908 17.7288 12.0281C17.5974 11.897 17.4539 11.7384 17.2787 11.5451C17.2353 11.4972 17.1899 11.4469 17.1423 11.3946Z" stroke="white" stroke-width="0.4" mask="url(#path-1-outside-1_3_551)"/>
</svg>
